<svg width="30" height="30" viewBox="0 0 30 30" fill="none" xmlns="http://www.w3.org/2000/svg">
<g clip-path="url(#clip0_125_2795)">
<path d="M25.8536 0H4.08215C2.9995 0 1.96118 0.430082 1.19563 1.19563C0.430082 1.96118 0 2.9995 0 4.08215L0 25.8536C0 26.9363 0.430082 27.9746 1.19563 28.7401C1.96118 29.5057 2.9995 29.9358 4.08215 29.9358H25.8536C26.9363 29.9358 27.9746 29.5057 28.7401 28.7401C29.5057 27.9746 29.9358 26.9363 29.9358 25.8536V4.08215C29.9358 2.9995 29.5057 1.96118 28.7401 1.19563C27.9746 0.430082 26.9363 0 25.8536 0ZM10.2054 23.6901C10.2056 23.7731 10.1894 23.8553 10.1578 23.9321C10.1262 24.0088 10.0798 24.0786 10.0211 24.1374C9.96253 24.1961 9.89289 24.2428 9.81622 24.2746C9.73955 24.3064 9.65735 24.3228 9.57434 24.3228H6.88522C6.80207 24.323 6.71969 24.3068 6.64282 24.2751C6.56595 24.2434 6.49611 24.1968 6.43731 24.138C6.37851 24.0792 6.33192 24.0093 6.3002 23.9325C6.26848 23.8556 6.25227 23.7732 6.25249 23.6901V12.4165C6.25249 12.2487 6.31915 12.0878 6.43781 11.9691C6.55647 11.8505 6.71741 11.7838 6.88522 11.7838H9.57434C9.74185 11.7843 9.90236 11.8511 10.0206 11.9697C10.1389 12.0883 10.2054 12.249 10.2054 12.4165V23.6901ZM8.22893 10.7156C7.72432 10.7156 7.23105 10.566 6.81148 10.2857C6.39191 10.0053 6.0649 9.60685 5.8718 9.14065C5.67869 8.67446 5.62817 8.16147 5.72661 7.66655C5.82505 7.17164 6.06805 6.71704 6.42486 6.36022C6.78167 6.00341 7.23628 5.76042 7.73119 5.66198C8.2261 5.56353 8.73909 5.61406 9.20529 5.80716C9.67148 6.00027 10.0699 6.32728 10.3503 6.74685C10.6306 7.16641 10.7803 7.65969 10.7803 8.1643C10.7803 8.84095 10.5115 9.4899 10.033 9.96837C9.55453 10.4468 8.90559 10.7156 8.22893 10.7156ZM24.2616 23.7343C24.2618 23.8107 24.2469 23.8865 24.2177 23.9572C24.1886 24.0278 24.1458 24.0921 24.0917 24.1461C24.0376 24.2002 23.9734 24.243 23.9027 24.2722C23.8321 24.3013 23.7563 24.3162 23.6799 24.316H20.7883C20.7119 24.3162 20.6361 24.3013 20.5655 24.2722C20.4948 24.243 20.4306 24.2002 20.3765 24.1461C20.3224 24.0921 20.2796 24.0278 20.2505 23.9572C20.2213 23.8865 20.2064 23.8107 20.2066 23.7343V18.453C20.2066 17.6638 20.438 14.9968 18.1434 14.9968C16.366 14.9968 16.0037 16.8219 15.9323 17.6417V23.7411C15.9323 23.8939 15.8722 24.0406 15.7649 24.1494C15.6577 24.2583 15.5119 24.3206 15.3591 24.3228H12.5662C12.4899 24.3228 12.4143 24.3077 12.3439 24.2785C12.2734 24.2492 12.2094 24.2064 12.1555 24.1523C12.1016 24.0983 12.0589 24.0341 12.0299 23.9636C12.0008 23.893 11.986 23.8174 11.9862 23.7411V12.3672C11.986 12.2909 12.0008 12.2153 12.0299 12.1447C12.0589 12.0742 12.1016 12.01 12.1555 11.956C12.2094 11.9019 12.2734 11.8591 12.3439 11.8298C12.4143 11.8006 12.4899 11.7855 12.5662 11.7855H15.3591C15.5134 11.7855 15.6613 11.8468 15.7704 11.9559C15.8795 12.065 15.9408 12.2129 15.9408 12.3672V13.3503C16.6007 12.3587 17.5788 11.5967 19.6657 11.5967C24.2888 11.5967 24.2582 15.9136 24.2582 18.2846L24.2616 23.7343Z" fill="#11B6BC"/>
</g>
<defs>
<clipPath id="clip0_125_2795">
<rect width="29.9358" height="29.9358" fill="white"/>
</clipPath>
</defs>
</svg>
