<svg width="25" height="25" viewBox="0 0 25 25" fill="none" xmlns="http://www.w3.org/2000/svg">
<rect x="0.553711" y="0.808594" width="23.7686" height="23.7687" rx="1.16918" fill="#FEFEFE"/>
<path d="M6.49512 8.34602C6.49512 7.96492 6.62895 7.65052 6.89661 7.40281C7.16428 7.1551 7.51225 7.03125 7.94051 7.03125C8.36113 7.03125 8.70144 7.15319 8.96146 7.3971C9.22912 7.64862 9.36296 7.97635 9.36296 8.38031C9.36296 8.74616 9.23295 9.05103 8.97293 9.29494C8.70527 9.54646 8.35348 9.67222 7.91756 9.67222H7.90609C7.48547 9.67222 7.14516 9.54646 6.88514 9.29494C6.62512 9.04341 6.49512 8.7271 6.49512 8.34602ZM6.64424 18.3497V10.7126H9.19089V18.3497H6.64424ZM10.6019 18.3497H13.1485V14.0853C13.1485 13.8185 13.1791 13.6127 13.2403 13.4679C13.3473 13.2087 13.5098 12.9896 13.7278 12.8105C13.9458 12.6314 14.2192 12.5418 14.548 12.5418C15.4045 12.5418 15.8328 13.1173 15.8328 14.2682V18.3497H18.3794V13.9709C18.3794 12.8429 18.1118 11.9873 17.5764 11.4043C17.0411 10.8212 16.3337 10.5297 15.4542 10.5297C14.4677 10.5297 13.6991 10.9527 13.1485 11.7987V11.8216H13.137L13.1485 11.7987V10.7126H10.6019C10.6172 10.9565 10.6248 11.7149 10.6248 12.9877C10.6248 14.2606 10.6172 16.0479 10.6019 18.3497Z" fill="#11B6BC"/>
</svg>
