<svg width="42" height="41" viewBox="0 0 42 41" fill="none" xmlns="http://www.w3.org/2000/svg">
<rect x="0.430664" y="-0.00390625" width="40.6585" height="40.6586" rx="2" fill="#FEFEFE"/>
<path d="M10.5947 12.8897C10.5947 12.2378 10.8237 11.6999 11.2815 11.2762C11.7394 10.8525 12.3346 10.6406 13.0672 10.6406C13.7867 10.6406 14.3688 10.8492 14.8136 11.2664C15.2715 11.6967 15.5004 12.2573 15.5004 12.9483C15.5004 13.5741 15.2781 14.0957 14.8333 14.5129C14.3754 14.9431 13.7736 15.1583 13.028 15.1583H13.0083C12.2888 15.1583 11.7067 14.9431 11.2619 14.5129C10.8171 14.0826 10.5947 13.5415 10.5947 12.8897ZM10.8498 30.0019V16.9379H15.2061V30.0019H10.8498ZM17.6197 30.0019H21.976V22.7072C21.976 22.2508 22.0283 21.8988 22.133 21.6511C22.3161 21.2078 22.5941 20.833 22.9669 20.5266C23.3398 20.2202 23.8074 20.067 24.37 20.067C25.8351 20.067 26.5677 21.0514 26.5677 23.0201V30.0019H30.924V22.5116C30.924 20.582 30.4661 19.1185 29.5504 18.1211C28.6347 17.1237 27.4246 16.625 25.9202 16.625C24.2326 16.625 22.9179 17.3486 21.976 18.7958V18.8349H21.9564L21.976 18.7958V16.9379H17.6197C17.6459 17.3551 17.659 18.6524 17.659 20.8297C17.659 23.007 17.6459 26.0644 17.6197 30.0019Z" fill="#11B6BC"/>
</svg>
