<svg xmlns="http://www.w3.org/2000/svg" width="30" height="30" viewBox="0 0 30 30" fill="none">
  <path d="M25.6066 4.39343C22.7735 1.56024 19.0066 0 15 0C10.9934 0 7.22648 1.56024 4.39342 4.39337C1.56023 7.2265 0 10.9934 0 15C0 19.0067 1.56023 22.7735 4.39342 25.6066C7.22648 28.4398 10.9934 30 15 30C19.0067 30 22.7735 28.4398 25.6066 25.6066C28.4397 22.7735 30 19.0066 30 15C30 10.9933 28.4397 7.2265 25.6066 4.39343ZM5.63766 5.63767C6.95666 4.31866 8.50512 3.3126 10.1929 2.65594C9.74332 3.21715 9.32268 3.86221 8.93719 4.58772C8.48947 5.4303 8.10316 6.35568 7.78143 7.3441C6.66686 7.15912 5.63414 6.93165 4.71152 6.6647C5.00068 6.30927 5.30918 5.96614 5.63766 5.63767ZM3.64623 8.17883C4.72535 8.52435 5.95945 8.81574 7.30606 9.04654C6.93105 10.6383 6.71033 12.3512 6.65766 14.1202H1.78922C1.9275 11.9972 2.56512 9.97104 3.64623 8.17883ZM3.55043 21.6585C2.52768 19.9066 1.92334 17.9389 1.78916 15.8798H6.661C6.71853 17.5983 6.93486 19.2625 7.29721 20.8126C5.92295 21.0354 4.65785 21.3194 3.55043 21.6585ZM5.63766 24.3624C5.26383 23.9885 4.91566 23.5959 4.59287 23.1873C5.5493 22.9221 6.61852 22.6975 7.76947 22.5174C8.0935 23.5195 8.48396 24.4571 8.93713 25.3101C9.35725 26.1007 9.81914 26.7954 10.3147 27.3905C8.57971 26.7352 6.98836 25.713 5.63766 24.3624ZM14.1202 28.0146C12.7837 27.6402 11.5195 26.4199 10.4911 24.4844C10.1314 23.8075 9.81545 23.069 9.5448 22.282C10.9938 22.1225 12.5357 22.0282 14.1202 22.0061V28.0146ZM14.1202 20.2463C12.363 20.2703 10.6504 20.3806 9.04652 20.569C8.69273 19.1065 8.47986 17.5234 8.42144 15.8799H14.1202V20.2463H14.1202ZM14.1202 14.1202H8.41811C8.47149 12.4307 8.68775 10.8035 9.05256 9.30371C10.6462 9.50293 12.3553 9.6241 14.1202 9.65879V14.1202ZM14.1202 7.89892C12.5296 7.86687 10.9911 7.76316 9.55231 7.59394C9.82131 6.81511 10.1348 6.08409 10.4911 5.41337C11.5195 3.4779 12.7837 2.2575 14.1202 1.88315V7.89892ZM26.4092 8.27228C27.4565 10.0414 28.0748 12.0339 28.2109 14.1202H23.3425C23.2904 12.3715 23.0739 10.6779 22.7067 9.1018C24.0622 8.88289 25.3116 8.60439 26.4092 8.27228ZM24.3623 5.63767C24.7155 5.99093 25.0455 6.36124 25.3533 6.74568C24.4116 7.00285 23.3628 7.22111 22.2359 7.39677C21.9108 6.38849 21.5186 5.4453 21.0629 4.58772C20.6774 3.86221 20.2567 3.21715 19.8072 2.65594C21.4948 3.3126 23.0433 4.31866 24.3623 5.63767ZM15.8798 15.8799H21.5786C21.5198 17.5362 21.304 19.1312 20.9452 20.6032C19.3518 20.4051 17.6435 20.2851 15.8798 20.2513V15.8799ZM15.8798 14.1202V9.66465C17.6379 9.64156 19.3519 9.53217 20.9573 9.34449C21.3162 10.833 21.529 12.446 21.5819 14.1202H15.8798ZM15.8797 1.88315H15.8798C17.2162 2.2575 18.4804 3.4779 19.5088 5.41337C19.8708 6.09464 20.1886 6.83826 20.4604 7.63103C19.0095 7.78994 17.4658 7.88351 15.8797 7.9049V1.88315ZM15.8798 28.0146V22.0112C17.4689 22.0424 19.0062 22.1451 20.4445 22.3133C20.1762 23.0886 19.8638 23.8165 19.5089 24.4844C18.4805 26.4199 17.2162 27.6402 15.8798 28.0146ZM24.3623 24.3624C23.0116 25.713 21.4203 26.7352 19.6853 27.3904C20.1808 26.7953 20.6427 26.1007 21.0628 25.3101C21.5093 24.4698 21.8947 23.5471 22.2159 22.5617C23.3565 22.7499 24.4116 22.9827 25.3516 23.2565C25.0444 23.6401 24.7149 24.0097 24.3623 24.3624ZM26.4027 21.7389C25.3108 21.3878 24.0589 21.0924 22.6922 20.8594C23.0611 19.2961 23.2809 17.6156 23.3391 15.8799H28.211C28.0746 17.9704 27.454 19.967 26.4027 21.7389Z" fill="#11B6BC"/>
</svg>