<svg width="25" height="25" viewBox="0 0 25 25" fill="none" xmlns="http://www.w3.org/2000/svg">
<rect x="0.276367" y="0.808594" width="23.7686" height="23.7687" rx="1.16918" fill="#FEFEFE"/>
<path d="M6.21777 8.34602C6.21777 7.96492 6.35161 7.65052 6.61927 7.40281C6.88693 7.1551 7.2349 7.03125 7.66316 7.03125C8.08378 7.03125 8.42409 7.15319 8.68411 7.3971C8.95178 7.64862 9.08561 7.97635 9.08561 8.38031C9.08561 8.74616 8.95561 9.05103 8.69559 9.29494C8.42792 9.54646 8.07613 9.67222 7.64022 9.67222H7.62875C7.20813 9.67222 6.86782 9.54646 6.6078 9.29494C6.34778 9.04341 6.21777 8.7271 6.21777 8.34602ZM6.3669 18.3497V10.7126H8.91354V18.3497H6.3669ZM10.3245 18.3497H12.8712V14.0853C12.8712 13.8185 12.9018 13.6127 12.9629 13.4679C13.07 13.2087 13.2325 12.9896 13.4505 12.8105C13.6684 12.6314 13.9418 12.5418 14.2707 12.5418C15.1272 12.5418 15.5555 13.1173 15.5555 14.2682V18.3497H18.1021V13.9709C18.1021 12.8429 17.8344 11.9873 17.2991 11.4043C16.7638 10.8212 16.0564 10.5297 15.1769 10.5297C14.1904 10.5297 13.4218 10.9527 12.8712 11.7987V11.8216H12.8597L12.8712 11.7987V10.7126H10.3245C10.3398 10.9565 10.3475 11.7149 10.3475 12.9877C10.3475 14.2606 10.3398 16.0479 10.3245 18.3497Z" fill="#11B6BC"/>
</svg>
